<svg id="Layer_1" enable-background="new 0 0 512 512" height="512" viewBox="0 0 512 512" width="512" xmlns="http://www.w3.org/2000/svg" xmlns:xlink="http://www.w3.org/1999/xlink"><linearGradient id="SVGID_1_" gradientUnits="userSpaceOnUse" x1="256" x2="256" y1="512" y2="271"><stop offset="0" stop-color="#00b59c"/><stop offset="1" stop-color="#9cffac"/></linearGradient><linearGradient id="SVGID_2_" gradientUnits="userSpaceOnUse" x1="256" x2="256" y1="241" y2="0"><stop offset="0" stop-color="#c3ffe8"/><stop offset=".297" stop-color="#c7ffe9"/><stop offset=".5952" stop-color="#d3ffec"/><stop offset=".8931" stop-color="#e7fff2"/><stop offset=".9973" stop-color="#f0fff4"/></linearGradient><g><path d="m446 512h-380c-8.284 0-15-6.716-15-15v-21c0-113.037 91.962-205 205-205s205 91.962 205 205v21c0 8.284-6.716 15-15 15z" fill="url(#SVGID_1_)"/><path d="m256 241c-55.14 0-100-44.86-100-100v-41c0-55.14 44.86-100 100-100s100 44.86 100 100v41c0 55.14-44.86 100-100 100z" fill="url(#SVGID_2_)"/></g></svg>