<svg id="Layer_1" enable-background="new 0 0 512 512" height="512" viewBox="0 0 512 512" width="512" xmlns="http://www.w3.org/2000/svg" xmlns:xlink="http://www.w3.org/1999/xlink"><linearGradient id="SVGID_1_" gradientUnits="userSpaceOnUse" x1="52.5" x2="52.5" y1="511" y2="1"><stop offset="0" stop-color="#ffbef9"/><stop offset="1" stop-color="#fff1ff"/></linearGradient><linearGradient id="SVGID_2_" gradientUnits="userSpaceOnUse" x1="323.5" x2="323.5" y1="511" y2="1"><stop offset="0" stop-color="#a93aff"/><stop offset="1" stop-color="#ff81ff"/></linearGradient><g><path d="m90 106h-75c-8.284 0-15-6.716-15-15v-75c0-8.284 6.716-15 15-15h75c8.284 0 15 6.716 15 15v75c0 8.284-6.716 15-15 15zm0 135h-75c-8.284 0-15-6.716-15-15v-75c0-8.284 6.716-15 15-15h75c8.284 0 15 6.716 15 15v75c0 8.284-6.716 15-15 15zm0 135h-75c-8.284 0-15-6.716-15-15v-75c0-8.284 6.716-15 15-15h75c8.284 0 15 6.716 15 15v75c0 8.284-6.716 15-15 15zm0 135h-75c-8.284 0-15-6.716-15-15v-75c0-8.284 6.716-15 15-15h75c8.284 0 15 6.716 15 15v75c0 8.284-6.716 15-15 15z" fill="url(#SVGID_1_)"/><path d="m497 106h-347c-8.284 0-15-6.716-15-15v-75c0-8.284 6.716-15 15-15h347c8.284 0 15 6.716 15 15v75c0 8.284-6.716 15-15 15zm0 135h-347c-8.284 0-15-6.716-15-15v-75c0-8.284 6.716-15 15-15h347c8.284 0 15 6.716 15 15v75c0 8.284-6.716 15-15 15zm0 135h-347c-8.284 0-15-6.716-15-15v-75c0-8.284 6.716-15 15-15h347c8.284 0 15 6.716 15 15v75c0 8.284-6.716 15-15 15zm0 135h-347c-8.284 0-15-6.716-15-15v-75c0-8.284 6.716-15 15-15h347c8.284 0 15 6.716 15 15v75c0 8.284-6.716 15-15 15z" fill="url(#SVGID_2_)"/></g></svg>