<svg id="Layer_1" enable-background="new 0 0 512 512" height="512" viewBox="0 0 512 512" width="512" xmlns="http://www.w3.org/2000/svg" xmlns:xlink="http://www.w3.org/1999/xlink"><linearGradient id="SVGID_1_" gradientUnits="userSpaceOnUse" x1="256" x2="256" y1="512" y2="0"><stop offset="0" stop-color="#ffedad"/><stop offset="1" stop-color="#ffffe5"/></linearGradient><linearGradient id="SVGID_2_" gradientUnits="userSpaceOnUse" x1="256" x2="256" y1="512" y2="0"><stop offset="0" stop-color="#fd5900"/><stop offset="1" stop-color="#ffde00"/></linearGradient><g><path d="m477 240h-170c-19.299 0-35-15.701-35-35v-170c0-19.299 15.701-35 35-35h170c19.299 0 35 15.701 35 35v170c0 19.299-15.701 35-35 35zm-272 272h-170c-19.299 0-35-15.701-35-35v-170c0-19.299 15.701-35 35-35h170c19.299 0 35 15.701 35 35v170c0 19.299-15.701 35-35 35z" fill="url(#SVGID_1_)"/><path d="m205 240h-170c-19.299 0-35-15.701-35-35v-170c0-19.299 15.701-35 35-35h170c19.299 0 35 15.701 35 35v170c0 19.299-15.701 35-35 35zm272 272h-170c-19.299 0-35-15.701-35-35v-170c0-19.299 15.701-35 35-35h170c19.299 0 35 15.701 35 35v170c0 19.299-15.701 35-35 35z" fill="url(#SVGID_2_)"/></g></svg>