<svg id="Layer_1" enable-background="new 0 0 512 512" height="512" viewBox="0 0 512 512" width="512" xmlns="http://www.w3.org/2000/svg" xmlns:xlink="http://www.w3.org/1999/xlink"><linearGradient id="SVGID_1_" gradientUnits="userSpaceOnUse" x1="256" x2="256" y1="512" y2="0"><stop offset="0" stop-color="#fd3a84"/><stop offset="1" stop-color="#ffa68d"/></linearGradient><linearGradient id="SVGID_2_" gradientUnits="userSpaceOnUse" x1="256" x2="256" y1="421" y2="81"><stop offset="0" stop-color="#ffc8d1"/><stop offset="1" stop-color="#fff6f7"/></linearGradient><g><path d="m457 512h-402c-30.327 0-55-24.673-55-55v-402c0-30.327 24.673-55 55-55h402c30.327 0 55 24.673 55 55v402c0 30.327-24.673 55-55 55z" fill="url(#SVGID_1_)"/><path d="m256 421c-85.468 0-155-69.533-155-155 0-29.856 8.535-58.839 24.683-83.816 15.688-24.267 37.775-43.657 63.872-56.075 7.481-3.56 16.431-.38 19.99 7.1 3.56 7.481.381 16.431-7.1 19.99-43.401 20.652-71.445 64.929-71.445 112.801 0 68.925 56.075 125 125 125s125-56.075 125-125c0-47.872-28.044-92.149-71.445-112.801-7.48-3.56-10.659-12.509-7.1-19.99 3.559-7.48 12.506-10.66 19.99-7.1 26.097 12.418 48.184 31.809 63.872 56.075 16.148 24.977 24.683 53.96 24.683 83.816 0 85.467-69.532 155-155 155zm15-205v-120c0-8.284-6.716-15-15-15s-15 6.716-15 15v120c0 8.284 6.716 15 15 15s15-6.716 15-15z" fill="url(#SVGID_2_)"/></g></svg>