<svg id="Layer_1" enable-background="new 0 0 512 512" height="512" viewBox="0 0 512 512" width="512" xmlns="http://www.w3.org/2000/svg" xmlns:xlink="http://www.w3.org/1999/xlink"><linearGradient id="SVGID_1_" gradientUnits="userSpaceOnUse" x1="256" x2="256" y1="512" y2="0"><stop offset="0" stop-color="#5558ff"/><stop offset="1" stop-color="#00c0ff"/></linearGradient><linearGradient id="SVGID_2_" gradientUnits="userSpaceOnUse" x1="256" x2="256" y1="451.027" y2="60.973"><stop offset="0" stop-color="#addcff"/><stop offset=".5028" stop-color="#eaf6ff"/><stop offset="1" stop-color="#eaf6ff"/></linearGradient><g><path d="m457 512h-402c-30.327 0-55-24.673-55-55v-402c0-30.327 24.673-55 55-55h402c30.327 0 55 24.673 55 55v402c0 30.327-24.673 55-55 55z" fill="url(#SVGID_1_)"/><path d="m385 154-120-90c-9.889-7.416-24-.361-24 12v150l-96-72c-6.627-4.971-16.029-3.627-21 3-4.971 6.627-3.627 16.029 3 21l104 78-104 78c-6.627 4.971-7.971 14.373-3 21 4.971 6.627 14.373 7.971 21 3l96-72v150c0 12.361 14.111 19.416 24 12l120-90c8-6 8-18 0-24l-104-78 104-78c8-6 8-18 0-24zm-114-48 80 60-80 60zm0 300v-120l80 60z" fill="url(#SVGID_2_)"/></g></svg>