<svg id="Layer_1" enable-background="new 0 0 512 512" height="512" viewBox="0 0 512 512" width="512" xmlns="http://www.w3.org/2000/svg" xmlns:xlink="http://www.w3.org/1999/xlink"><linearGradient id="SVGID_1_" gradientUnits="userSpaceOnUse" x1="256" x2="256" y1="512" y2="0"><stop offset="0" stop-color="#00b59c"/><stop offset="1" stop-color="#9cffac"/></linearGradient><linearGradient id="SVGID_2_" gradientUnits="userSpaceOnUse" x1="256" x2="256" y1="441" y2="71"><stop offset="0" stop-color="#c3ffe8"/><stop offset=".9973" stop-color="#f0fff4"/></linearGradient><g><path d="m457 512h-402c-30.327 0-55-24.673-55-55v-402c0-30.327 24.673-55 55-55h402c30.327 0 55 24.673 55 55v402c0 30.327-24.673 55-55 55z" fill="url(#SVGID_1_)"/><path d="m145.393 196.607c-5.858-5.858-5.858-15.355 0-21.213l100-100c5.858-5.858 15.355-5.858 21.213 0l100 100c5.858 5.858 5.858 15.355 0 21.213s-15.355 5.858-21.213 0l-74.393-74.394v233.787c0 8.284-6.716 15-15 15s-15-6.716-15-15v-233.787l-74.393 74.393c-5.858 5.859-15.356 5.859-21.214.001zm250.607 214.393h-280c-8.284 0-15 6.716-15 15s6.716 15 15 15h280c8.284 0 15-6.716 15-15s-6.716-15-15-15z" fill="url(#SVGID_2_)"/></g></svg>