<svg id="Layer_1" enable-background="new 0 0 512 512" height="512" viewBox="0 0 512 512" width="512" xmlns="http://www.w3.org/2000/svg" xmlns:xlink="http://www.w3.org/1999/xlink"><linearGradient id="SVGID_1_" gradientUnits="userSpaceOnUse" x1="256" x2="256" y1="512" y2="0"><stop offset="0" stop-color="#fd5900"/><stop offset="1" stop-color="#ffde00"/></linearGradient><linearGradient id="SVGID_2_" gradientUnits="userSpaceOnUse" x1="256" x2="256" y1="415" y2="97"><stop offset="0" stop-color="#ffedad"/><stop offset="1" stop-color="#ffffe5"/></linearGradient><g><path d="m457 512h-402c-30.327 0-55-24.673-55-55v-402c0-30.327 24.673-55 55-55h402c30.327 0 55 24.673 55 55v402c0 30.327-24.673 55-55 55z" fill="url(#SVGID_1_)"/><path d="m396 127h-280c-8.284 0-15-6.716-15-15s6.716-15 15-15h280c8.284 0 15 6.716 15 15s-6.716 15-15 15zm15 81c0-8.284-6.716-15-15-15h-280c-8.284 0-15 6.716-15 15s6.716 15 15 15h280c8.284 0 15-6.716 15-15zm0 96c0-8.284-6.716-15-15-15h-280c-8.284 0-15 6.716-15 15s6.716 15 15 15h280c8.284 0 15-6.716 15-15zm0 96c0-8.284-6.716-15-15-15h-280c-8.284 0-15 6.716-15 15s6.716 15 15 15h280c8.284 0 15-6.716 15-15z" fill="url(#SVGID_2_)"/></g></svg>