<svg id="Layer_1" enable-background="new 0 0 512 512" height="512" viewBox="0 0 512 512" width="512" xmlns="http://www.w3.org/2000/svg" xmlns:xlink="http://www.w3.org/1999/xlink"><linearGradient id="SVGID_1_" gradientUnits="userSpaceOnUse" x1="256" x2="256" y1="512" y2="0"><stop offset="0" stop-color="#00b59c"/><stop offset="1" stop-color="#9cffac"/></linearGradient><linearGradient id="SVGID_2_" gradientUnits="userSpaceOnUse" x1="256" x2="256" y1="411" y2="101"><stop offset="0" stop-color="#c3ffe8"/><stop offset=".9973" stop-color="#f0fff4"/></linearGradient><g><path d="m512 256c0 141.385-114.615 256-256 256s-256-114.615-256-256 114.615-256 256-256 256 114.615 256 256z" fill="url(#SVGID_1_)"/><path d="m256 411c-8.284 0-15-6.716-15-15v-125h-125c-8.284 0-15-6.716-15-15s6.716-15 15-15h125v-125c0-8.284 6.716-15 15-15s15 6.716 15 15v125h125c8.284 0 15 6.716 15 15s-6.716 15-15 15h-125v125c0 8.284-6.716 15-15 15z" fill="url(#SVGID_2_)"/></g></svg>