<svg id="Layer_1" enable-background="new 0 0 512 512" height="512" viewBox="0 0 512 512" width="512" xmlns="http://www.w3.org/2000/svg" xmlns:xlink="http://www.w3.org/1999/xlink"><linearGradient id="SVGID_1_" gradientUnits="userSpaceOnUse" x1="256" x2="256" y1="512" y2="0"><stop offset="0" stop-color="#ffedad"/><stop offset="1" stop-color="#ffffe5"/></linearGradient><linearGradient id="SVGID_2_" gradientUnits="userSpaceOnUse" x1="256" x2="256" y1="481.49" y2="30.51"><stop offset="0" stop-color="#fd5900"/><stop offset="1" stop-color="#ffde00"/></linearGradient><g><path d="m256 512c-68.38 0-132.667-26.629-181.02-74.98-48.351-48.353-74.98-112.64-74.98-181.02s26.629-132.667 74.98-181.02c48.353-48.351 112.64-74.98 181.02-74.98s132.667 26.629 181.02 74.98c48.351 48.353 74.98 112.64 74.98 181.02s-26.629 132.667-74.98 181.02c-48.353 48.351-112.64 74.98-181.02 74.98z" fill="url(#SVGID_1_)"/><path d="m452 256c0-8.284 6.716-15 15-15h14.49c-3.362-51.045-23.739-97.512-55.51-133.768l-10.175 10.175c-5.858 5.858-15.355 5.857-21.213-.001-5.857-5.858-5.857-15.355 0-21.213l10.175-10.174c-36.256-31.77-82.722-52.147-133.767-55.509v14.49c0 8.284-6.716 15-15 15s-15-6.716-15-15v-14.49c-51.045 3.362-97.511 23.739-133.767 55.509l10.174 10.174c5.858 5.858 5.858 15.355 0 21.213s-15.355 5.858-21.213 0l-10.174-10.174c-31.771 36.257-52.148 82.723-55.51 133.768h14.49c8.284 0 15 6.716 15 15s-6.716 15-15 15h-14.49c3.362 51.045 23.739 97.511 55.509 133.767l10.174-10.174c5.858-5.858 15.355-5.858 21.213 0s5.858 15.355 0 21.213l-10.174 10.174c36.256 31.771 82.723 52.148 133.767 55.509v-14.489c0-8.284 6.716-15 15-15s15 6.716 15 15v14.49c51.045-3.362 97.511-23.739 133.767-55.509l-10.175-10.174c-5.858-5.858-5.858-15.355 0-21.213s15.355-5.859 21.213-.001l10.175 10.175c31.771-36.256 52.148-82.723 55.51-133.768h-14.489c-8.284 0-15-6.716-15-15zm-181 0c0 11.547-12.5 18.764-22.5 12.99l-103.923-60c-7.174-4.142-9.632-13.316-5.49-20.49s13.316-9.632 20.49-5.49l81.423 47.009v-124.019c0-8.284 6.716-15 15-15 8.284 0 15 6.716 15 15z" fill="url(#SVGID_2_)"/></g></svg>