<svg width="512" height="512" viewBox="0 0 512 512" fill="none" xmlns="http://www.w3.org/2000/svg">
<path d="M105 341H15C6.716 341 0 334.284 0 326V186C0 177.716 6.716 171 15 171H105C113.284 171 120 177.716 120 186V326C120 334.284 113.284 341 105 341ZM512 256C512 165.019 437.981 91 347 91C338.716 91 332 97.716 332 106C332 114.284 338.716 121 347 121C421.439 121 482 181.561 482 256C482 330.439 421.439 391 347 391C338.716 391 332 397.716 332 406C332 414.284 338.716 421 347 421C437.981 421 512 346.981 512 256ZM452 256C452 198.103 404.897 151 347 151C338.716 151 332 157.716 332 166C332 174.284 338.716 181 347 181C388.355 181 422 214.645 422 256C422 297.355 388.355 331 347 331C338.716 331 332 337.716 332 346C332 354.284 338.716 361 347 361C404.897 361 452 313.897 452 256ZM392 256C392 231.187 371.813 211 347 211C338.716 211 332 217.716 332 226C332 234.284 338.716 241 347 241C355.271 241 362 247.729 362 256C362 264.271 355.271 271 347 271C338.716 271 332 277.716 332 286C332 294.284 338.716 301 347 301C371.813 301 392 280.813 392 256Z" fill="#ECEFF4"/>
<path d="M275.791 34.16C285.644 26.497 300 33.518 300 46V466C300 478.482 285.644 485.504 275.791 477.84L99.853 341V171L275.791 34.16Z" fill="#B48EAD"/>
</svg>
