<svg width="512" height="512" viewBox="0 0 512 512" fill="none" xmlns="http://www.w3.org/2000/svg">
<g clip-path="url(#clip0)">
<path d="M486.393 341.607L422 277.213L357.607 341.606C351.749 347.464 342.252 347.464 336.394 341.606C330.536 335.748 330.536 326.251 336.394 320.393L400.787 256L336.393 191.606C330.535 185.748 330.535 176.251 336.393 170.393C342.251 164.535 351.748 164.535 357.606 170.393L422 234.787L486.393 170.394C492.251 164.536 501.748 164.536 507.606 170.394C513.464 176.252 513.464 185.749 507.606 191.607L443.213 256L507.607 320.394C513.465 326.252 513.465 335.749 507.607 341.607C501.749 347.465 492.251 347.465 486.393 341.607ZM120 326V186C120 177.716 113.284 171 105 171H15C6.716 171 0 177.716 0 186V326C0 334.284 6.716 341 15 341H105C113.284 341 120 334.284 120 326Z" fill="#ECEFF4"/>
<path d="M275.791 34.16C285.644 26.497 300 33.518 300 46V466C300 478.482 285.644 485.504 275.791 477.84L99.853 341V171L275.791 34.16Z" fill="#B48EAD"/>
</g>
<defs>
<clipPath id="clip0">
<rect width="512" height="512" fill="white"/>
</clipPath>
</defs>
</svg>
