<svg id="Layer_1" enable-background="new 0 0 512 512" height="512" viewBox="0 0 512 512" width="512" xmlns="http://www.w3.org/2000/svg" xmlns:xlink="http://www.w3.org/1999/xlink"><linearGradient id="SVGID_1_" gradientUnits="userSpaceOnUse" x1="225" x2="225" y1="466" y2="46"><stop offset="0" stop-color="#c3ffe8"/><stop offset=".9973" stop-color="#f0fff4"/></linearGradient><linearGradient id="SVGID_2_" gradientUnits="userSpaceOnUse" x1="256" x2="256" y1="512" y2="0"><stop offset="0" stop-color="#00b59c"/><stop offset="1" stop-color="#9cffac"/></linearGradient><g><path d="m315 466h-180c-8.284 0-15-6.716-15-15v-390c0-8.284 6.716-15 15-15h180c8.284 0 15 6.716 15 15v390c0 8.284-6.716 15-15 15z" fill="url(#SVGID_1_)"/><path d="m507.607 266.607-80 80c-5.858 5.858-15.355 5.858-21.213 0s-5.858-15.355 0-21.213l54.393-54.394h-205.787c-8.284 0-15-6.716-15-15s6.716-15 15-15h205.787l-54.393-54.393c-5.858-5.858-5.858-15.355 0-21.213s15.355-5.858 21.213 0l80 80c5.858 5.857 5.858 15.355 0 21.213zm-357.607 230.381v-481.976c0-10.286-10.117-17.52-19.85-14.194l-120 41c-6.07 2.074-10.15 7.779-10.15 14.194v399.976c0 6.415 4.08 12.12 10.15 14.194l120 41c9.733 3.326 19.85-3.908 19.85-14.194z" fill="url(#SVGID_2_)"/></g></svg>