<svg id="Layer_1" enable-background="new 0 0 512 512" height="512" viewBox="0 0 512 512" width="512" xmlns="http://www.w3.org/2000/svg" xmlns:xlink="http://www.w3.org/1999/xlink"><linearGradient id="SVGID_1_" gradientUnits="userSpaceOnUse" x1="203.551" x2="426.289" y1="308.449" y2="85.711"><stop offset="0" stop-color="#fd3a84"/><stop offset="1" stop-color="#ffa68d"/></linearGradient><linearGradient id="SVGID_2_" gradientUnits="userSpaceOnUse" x1="4.393" x2="436.896" y1="507.607" y2="75.104"><stop offset="0" stop-color="#ffc8d1"/><stop offset="1" stop-color="#fff6f7"/></linearGradient><g><path d="m348.601 410.887-10.7 10.7c-5.858 5.858-15.355 5.858-21.213 0l-226.274-226.275c-5.858-5.858-5.858-15.355 0-21.213l10.7-10.7c42.097-42.097 104.883-54.334 159.278-31.999l105.793-105.793 120.208 120.208-105.794 105.794c22.336 54.395 10.098 117.181-31.998 159.278z" fill="url(#SVGID_1_)"/><path d="m486.393 167.028-141.421-141.421c-5.858-5.858-5.858-15.355 0-21.213s15.355-5.858 21.213 0l141.421 141.421c5.858 5.858 5.858 15.355 0 21.213s-15.355 5.858-21.213 0zm-293.449 130.815-188.551 188.55c-5.858 5.858-5.858 15.355 0 21.213s15.355 5.858 21.213 0l188.551-188.551z" fill="url(#SVGID_2_)"/></g></svg>