<svg id="Layer_1" enable-background="new 0 0 512 512" height="512" viewBox="0 0 512 512" width="512" xmlns="http://www.w3.org/2000/svg" xmlns:xlink="http://www.w3.org/1999/xlink"><linearGradient id="SVGID_1_" gradientTransform="matrix(.707 .707 -.707 .707 402.155 -483.749)" gradientUnits="userSpaceOnUse" x1="419.735" x2="419.735" y1="982.168" y2="313.03"><stop offset="0" stop-color="#addcff"/><stop offset=".5028" stop-color="#eaf6ff"/><stop offset="1" stop-color="#eaf6ff"/></linearGradient><linearGradient id="SVGID_2_" gradientTransform="matrix(.707 .707 -.707 .707 402.155 -483.749)" gradientUnits="userSpaceOnUse" x1="419.735" x2="419.735" y1="791.623" y2="427.108"><stop offset="0" stop-color="#5558ff"/><stop offset="1" stop-color="#00c0ff"/></linearGradient><g><path d="m449.975 168.092-67.827-38.239-38.239-67.827 48.845-48.845c17.573-17.574 46.066-17.574 63.64 0l42.426 42.426c17.574 17.574 17.574 46.066 0 63.64zm-364.145 152.012c-1.17 1.17-2.138 2.525-2.866 4.011l-81.375 166.229c-6.282 12.833 7.235 26.35 20.068 20.068l166.228-81.376c1.486-.727 2.841-1.696 4.011-2.866l.327-.327-40.603-69.726-65.463-36.34z" fill="url(#SVGID_1_)"/><path d="m449.975 168.092-257.752 257.751-106.066-106.066 257.752-257.751z" fill="url(#SVGID_2_)"/></g></svg>