<svg id="Layer_1" enable-background="new 0 0 512 512" height="512" viewBox="0 0 512 512" width="512" xmlns="http://www.w3.org/2000/svg" xmlns:xlink="http://www.w3.org/1999/xlink"><linearGradient id="SVGID_1_" gradientUnits="userSpaceOnUse" x1="256" x2="256" y1="421" y2="91"><stop offset="0" stop-color="#00b59c"/><stop offset="1" stop-color="#9cffac"/></linearGradient><linearGradient id="SVGID_2_" gradientUnits="userSpaceOnUse" x1="256" x2="256" y1="512" y2="0"><stop offset="0" stop-color="#c3ffe8"/><stop offset=".9973" stop-color="#f0fff4"/></linearGradient><g><path d="m256 421c-32.658 0-66.432-8.396-100.383-24.956-26.663-13.004-53.514-31.062-79.809-53.671-44.456-38.225-71.84-76.024-72.984-77.614-3.764-5.233-3.764-12.286 0-17.519 1.144-1.59 28.529-39.389 72.984-77.614 26.295-22.609 53.146-40.667 79.809-53.671 33.951-16.558 67.725-24.955 100.383-24.955s66.432 8.396 100.383 24.956c26.663 13.004 53.514 31.062 79.809 53.671 44.456 38.225 71.84 76.024 72.984 77.614 3.764 5.233 3.764 12.286 0 17.519-1.144 1.59-28.529 39.389-72.984 77.614-26.295 22.609-53.146 40.667-79.809 53.671-33.951 16.559-67.725 24.955-100.383 24.955z" fill="url(#SVGID_1_)"/><path d="m256 361c-57.897 0-105-47.103-105-105s47.103-105 105-105 105 47.103 105 105-47.103 105-105 105zm251.607 146.607c5.858-5.858 5.858-15.355 0-21.213l-482-482c-5.858-5.858-15.355-5.858-21.213 0-5.858 5.858-5.858 15.355 0 21.213l482 482c5.857 5.858 15.355 5.858 21.213 0z" fill="url(#SVGID_2_)"/></g></svg>