<svg id="Layer_1" enable-background="new 0 0 512 512" height="512" viewBox="0 0 512 512" width="512" xmlns="http://www.w3.org/2000/svg" xmlns:xlink="http://www.w3.org/1999/xlink"><linearGradient id="SVGID_1_" gradientUnits="userSpaceOnUse" x1="4.394" x2="366.432" y1="507.606" y2="145.568"><stop offset="0" stop-color="#a93aff"/><stop offset="1" stop-color="#ff81ff"/></linearGradient><path d="m378 497c0 8.285-6.716 15-15 15h-67c-8.284 0-15-6.716-15-15 0-146.908-119.092-266-266-266-8.284 0-15-6.716-15-15v-67c0-8.284 6.716-15 15-15 200.48 0 363 162.52 363 363zm-363-95c-8.284 0-15 6.716-15 15v80c0 8.284 6.716 15 15 15h80c8.284 0 15-6.716 15-15 0-52.467-42.533-95-95-95zm0-134c-8.285 0-15 6.716-15 15v67c0 8.284 6.716 15 15 15 72.902 0 132 59.098 132 132 0 8.284 6.716 15 15 15h67c8.284 0 15-6.716 15-15 0-126.473-102.527-229-229-229zm0-268c-8.284 0-15 6.716-15 15v67c0 8.284 6.716 15 15 15 220.914 0 400 179.086 400 400 0 8.284 6.716 15 15 15h67c8.284 0 15-6.716 15-15v-.001c0-274.485-222.514-496.999-497-496.999z" fill="url(#SVGID_1_)"/></svg>