<svg id="Layer_1" enable-background="new 0 0 512 512" height="512" viewBox="0 0 512 512" width="512" xmlns="http://www.w3.org/2000/svg" xmlns:xlink="http://www.w3.org/1999/xlink"><linearGradient id="SVGID_1_" gradientUnits="userSpaceOnUse" x1="256" x2="256" y1="497" y2="15"><stop offset="0" stop-color="#fd5900"/><stop offset="1" stop-color="#ffde00"/></linearGradient><linearGradient id="SVGID_2_" gradientUnits="userSpaceOnUse" x1="256" x2="256" y1="512" y2="0"><stop offset="0" stop-color="#ffedad"/><stop offset="1" stop-color="#ffffe5"/></linearGradient><g><path d="m497 256c0 133.101-107.899 241-241 241s-241-107.899-241-241 107.899-241 241-241 241 107.899 241 241z" fill="url(#SVGID_1_)"/><path d="m437.02 74.98c-48.353-48.351-112.64-74.98-181.02-74.98s-132.667 26.629-181.02 74.98c-48.351 48.353-74.98 112.64-74.98 181.02s26.629 132.667 74.98 181.02c48.353 48.351 112.64 74.98 181.02 74.98s132.667-26.629 181.02-74.98c48.351-48.353 74.98-112.64 74.98-181.02s-26.629-132.667-74.98-181.02zm-14.767 333.937c-15.509-9.66-31.731-17.892-48.5-24.657 10.301-34.258 16.318-72.895 17.516-113.259h90.221c-3.491 53.013-25.337 101.088-59.237 137.916zm-391.743-137.917h90.221c1.199 40.364 7.216 79.001 17.517 113.259-16.77 6.765-32.991 14.997-48.501 24.657-33.9-36.827-55.746-84.902-59.237-137.916zm59.237-167.916c15.509 9.66 31.731 17.892 48.501 24.657-10.301 34.258-16.318 72.895-17.517 113.259h-90.221c3.491-53.014 25.337-101.089 59.237-137.916zm151.253 17.02c-21.994-1.141-43.602-4.786-64.481-10.835 2.408-5.873 4.973-11.538 7.691-16.973 15.96-31.92 36.063-52.854 56.79-59.771zm0 30.031v90.865h-90.257c1.16-36.993 6.599-72.235 15.843-103.382 24.063 7.109 49.01 11.325 74.414 12.517zm0 120.865v90.865c-25.404 1.192-50.351 5.408-74.414 12.517-9.245-31.147-14.683-66.389-15.843-103.382zm0 120.896v87.579c-20.727-6.917-40.83-27.851-56.79-59.771-2.718-5.436-5.283-11.1-7.691-16.973 20.879-6.048 42.487-9.694 64.481-10.835zm30-.004c21.994 1.142 43.599 4.797 64.477 10.85-2.407 5.869-4.971 11.531-7.687 16.963-15.96 31.92-36.062 52.854-56.79 59.771zm0-30.027v-90.865h90.257c-1.16 36.993-6.599 72.235-15.843 103.382-24.063-7.109-49.01-11.325-74.414-12.517zm0-120.865v-90.865c25.404-1.193 50.351-5.411 74.412-12.522 9.245 31.148 14.685 66.392 15.845 103.387zm0-120.896v-87.58c20.728 6.917 40.83 27.851 56.79 59.771 2.718 5.436 5.283 11.1 7.691 16.973-20.879 6.049-42.487 9.695-64.481 10.836zm83.623-41.225c-6.749-13.499-14.18-25.37-22.159-35.553 24.666 8.895 47.358 21.956 67.21 38.346-11.565 6.769-23.537 12.686-35.843 17.722-2.865-7.107-5.931-13.962-9.208-20.515zm-197.246 0c-3.277 6.554-6.343 13.408-9.208 20.514-12.306-5.035-24.278-10.953-35.843-17.722 19.852-16.39 42.544-29.45 67.21-38.346-7.979 10.184-15.409 22.055-22.159 35.554zm-9.207 333.728c2.865 7.106 5.931 13.96 9.208 20.514 6.749 13.499 14.18 25.37 22.159 35.553-24.666-8.895-47.359-21.956-67.21-38.346 11.564-6.768 23.537-12.686 35.843-17.721zm206.453 20.514c3.274-6.549 6.338-13.398 9.201-20.498 12.302 5.036 24.271 10.952 35.833 17.719-19.848 16.383-42.534 29.439-67.193 38.332 7.979-10.183 15.41-22.054 22.159-35.553zm126.867-192.121h-90.221c-1.199-40.366-7.216-79.005-17.518-113.264 16.768-6.766 32.989-14.998 48.497-24.658 33.903 36.828 55.75 84.906 59.242 137.922z" fill="url(#SVGID_2_)"/></g></svg>