<svg id="Layer_1" enable-background="new 0 0 512 512" height="512" viewBox="0 0 512 512" width="512" xmlns="http://www.w3.org/2000/svg" xmlns:xlink="http://www.w3.org/1999/xlink"><linearGradient id="SVGID_1_" gradientUnits="userSpaceOnUse" x1="256" x2="256" y1="512" y2="162"><stop offset="0" stop-color="#ffc8d1"/><stop offset="1" stop-color="#fff6f7"/></linearGradient><linearGradient id="SVGID_2_" gradientUnits="userSpaceOnUse" x1="256" x2="256" y1="418" y2="0"><stop offset="0" stop-color="#fd3a84"/><stop offset="1" stop-color="#ffa68d"/></linearGradient><g><path d="m472.449 410.543-210 100c-4.08 1.943-8.818 1.943-12.898 0l-210-100c-11.401-5.429-11.401-21.657 0-27.086l70.26-33.457v-94l-70.26-33.457c-11.401-5.429-11.401-21.657 0-27.086l70.26-33.457h292.377l70.26 33.457c11.401 5.429 11.401 21.657 0 27.086l-70.259 33.457v94l70.26 33.457c11.401 5.429 11.401 21.657 0 27.086z" fill="url(#SVGID_1_)"/><path d="m472.449 316.543-210 100c-4.08 1.943-8.818 1.943-12.898 0l-210-100c-11.401-5.429-11.401-21.657 0-27.086l70.26-33.457 139.74 66.543c4.08 1.943 8.818 1.943 12.898 0l139.74-66.543 70.26 33.457c11.401 5.429 11.401 21.657 0 27.086zm0-215.086-210-100c-4.08-1.943-8.818-1.943-12.898 0l-210 100c-11.401 5.429-11.401 21.657 0 27.086l210 100c4.08 1.943 8.818 1.943 12.898 0l210-100c11.401-5.429 11.401-21.657 0-27.086z" fill="url(#SVGID_2_)"/></g></svg>