<svg id="Layer_1" enable-background="new 0 0 512 512" height="512" viewBox="0 0 512 512" width="512" xmlns="http://www.w3.org/2000/svg" xmlns:xlink="http://www.w3.org/1999/xlink"><linearGradient id="SVGID_1_" gradientUnits="userSpaceOnUse" x1="256" x2="256" y1="512" y2="77"><stop offset="0" stop-color="#00b59c"/><stop offset="1" stop-color="#9cffac"/></linearGradient><linearGradient id="SVGID_2_" gradientUnits="userSpaceOnUse" x1="256" x2="256" y1="512" y2="0"><stop offset="0" stop-color="#c3ffe8"/><stop offset=".9973" stop-color="#f0fff4"/></linearGradient><g><path d="m91 77h330v360h-330z" fill="url(#SVGID_1_)"/><path d="m421 437v20c0 30.327-24.673 55-55 55h-220c-30.327 0-55-24.673-55-55v-20zm30-360c0 8.284-6.716 15-15 15h-360c-8.284 0-15-6.716-15-15s6.716-15 15-15h105v-47c0-8.284 6.716-15 15-15h120c8.284 0 15 6.716 15 15v47h105c8.284 0 15 6.716 15 15zm-240-15h90v-32h-90zm60 295v-200c0-8.284-6.716-15-15-15s-15 6.716-15 15v200c0 8.284 6.716 15 15 15s15-6.716 15-15zm75 0v-200c0-8.284-6.716-15-15-15s-15 6.716-15 15v200c0 8.284 6.716 15 15 15s15-6.716 15-15zm-150 0v-200c0-8.284-6.716-15-15-15s-15 6.716-15 15v200c0 8.284 6.716 15 15 15s15-6.716 15-15z" fill="url(#SVGID_2_)"/></g></svg>