<svg id="Layer_1" enable-background="new 0 0 512 512" height="512" viewBox="0 0 512 512" width="512" xmlns="http://www.w3.org/2000/svg" xmlns:xlink="http://www.w3.org/1999/xlink"><linearGradient id="SVGID_1_" gradientUnits="userSpaceOnUse" x1="256" x2="256" y1="512" y2="0"><stop offset="0" stop-color="#ffbef9"/><stop offset="1" stop-color="#fff1ff"/></linearGradient><linearGradient id="SVGID_2_" gradientUnits="userSpaceOnUse" x1="256" x2="256" y1="452" y2="240"><stop offset="0" stop-color="#a93aff"/><stop offset="1" stop-color="#ff81ff"/></linearGradient><g><path d="m472 270h-30v-54c0-102.725-83.275-186-186-186-102.725 0-186 83.275-186 186v54h-30v-54c0-119.294 96.706-216 216-216 119.293 0 216 96.706 216 216zm-201 197v-30c0-8.284-6.716-15-15-15s-15 6.716-15 15v30c0 8.271-6.729 15-15 15h-141c-8.271 0-15-6.729-15-15v-52c0-8.284-6.716-15-15-15s-15 6.716-15 15v52c0 24.813 20.187 45 45 45h141c24.813 0 45-20.187 45-45z" fill="url(#SVGID_1_)"/><path d="m256 452c-24.813 0-45-20.187-45-45s20.187-45 45-45 45 20.187 45 45-20.187 45-45 45zm-181-22h-40c-19.299 0-35-15.701-35-35v-120c0-19.299 15.701-35 35-35h40c19.299 0 35 15.701 35 35v120c0 19.299-15.701 35-35 35zm402 0h-40c-19.299 0-35-15.701-35-35v-120c0-19.299 15.701-35 35-35h40c19.299 0 35 15.701 35 35v120c0 19.299-15.701 35-35 35z" fill="url(#SVGID_2_)"/></g></svg>