<svg id="Layer_1" enable-background="new 0 0 512 512" height="512" viewBox="0 0 512 512" width="512" xmlns="http://www.w3.org/2000/svg" xmlns:xlink="http://www.w3.org/1999/xlink"><linearGradient id="SVGID_1_" gradientUnits="userSpaceOnUse" x1="256" x2="256" y1="451" y2="61"><stop offset="0" stop-color="#fd5900"/><stop offset="1" stop-color="#ffde00"/></linearGradient><linearGradient id="SVGID_2_" gradientUnits="userSpaceOnUse" x1="256" x2="256" y1="391" y2="101"><stop offset="0" stop-color="#ffedad"/><stop offset="1" stop-color="#ffffe5"/></linearGradient><g><path d="m457 451h-402c-30.376 0-55-24.624-55-55v-200c0-30.376 24.624-55 55-55h89.289l17.16-68.638c1.668-6.678 7.668-11.362 14.551-11.362h160c6.883 0 12.883 4.684 14.552 11.362l17.16 68.638h89.288c30.376 0 55 24.624 55 55v200c0 30.376-24.624 55-55 55z" fill="url(#SVGID_1_)"/><path d="m256 391c-57.897 0-105-47.103-105-105s47.103-105 105-105 105 47.103 105 105-47.103 105-105 105zm196-175c0-8.284-6.716-15-15-15h-20c-8.284 0-15 6.716-15 15s6.716 15 15 15h20c8.284 0 15-6.716 15-15zm-362-75v-25c0-8.284-6.716-15-15-15s-15 6.716-15 15v25z" fill="url(#SVGID_2_)"/></g></svg>