<svg id="Layer_1" enable-background="new 0 0 512 512" height="512" viewBox="0 0 512 512" width="512" xmlns="http://www.w3.org/2000/svg" xmlns:xlink="http://www.w3.org/1999/xlink"><linearGradient id="SVGID_1_" gradientUnits="userSpaceOnUse" x1="256" x2="256" y1="481" y2="31"><stop offset="0" stop-color="#fd3a84"/><stop offset="1" stop-color="#ffa68d"/></linearGradient><linearGradient id="SVGID_2_" gradientUnits="userSpaceOnUse" x1="256" x2="256" y1="421" y2="61"><stop offset="0" stop-color="#ffc8d1"/><stop offset="1" stop-color="#fff6f7"/></linearGradient><g><path d="m170.667 146h170.667l170.666 20v260c0 30.327-24.673 55-55 55h-402c-30.327 0-55-24.673-55-55v-260zm-59.667-40v-60c0-8.284-6.716-15-15-15s-15 6.716-15 15v60c0 8.284 6.716 15 15 15s15-6.716 15-15zm160 0v-60c0-8.284-6.716-15-15-15s-15 6.716-15 15v60c0 8.284 6.716 15 15 15s15-6.716 15-15zm160 0v-60c0-8.284-6.716-15-15-15s-15 6.716-15 15v60c0 8.284 6.716 15 15 15s15-6.716 15-15z" fill="url(#SVGID_1_)"/><path d="m106 421h-20c-8.284 0-15-6.716-15-15s6.716-15 15-15h20c8.284 0 15 6.716 15 15s-6.716 15-15 15zm95-15c0-8.284-6.716-15-15-15h-20c-8.284 0-15 6.716-15 15s6.716 15 15 15h20c8.284 0 15-6.716 15-15zm80 0c0-8.284-6.716-15-15-15h-20c-8.284 0-15 6.716-15 15s6.716 15 15 15h20c8.284 0 15-6.716 15-15zm-160-60c0-8.284-6.716-15-15-15h-20c-8.284 0-15 6.716-15 15s6.716 15 15 15h20c8.284 0 15-6.716 15-15zm80 0c0-8.284-6.716-15-15-15h-20c-8.284 0-15 6.716-15 15s6.716 15 15 15h20c8.284 0 15-6.716 15-15zm80 0c0-8.284-6.716-15-15-15h-20c-8.284 0-15 6.716-15 15s6.716 15 15 15h20c8.284 0 15-6.716 15-15zm80 0c0-8.284-6.716-15-15-15h-20c-8.284 0-15 6.716-15 15s6.716 15 15 15h20c8.284 0 15-6.716 15-15zm80 0c0-8.284-6.716-15-15-15h-20c-8.284 0-15 6.716-15 15s6.716 15 15 15h20c8.284 0 15-6.716 15-15zm-320-60c0-8.284-6.716-15-15-15h-20c-8.284 0-15 6.716-15 15s6.716 15 15 15h20c8.284 0 15-6.716 15-15zm80 0c0-8.284-6.716-15-15-15h-20c-8.284 0-15 6.716-15 15s6.716 15 15 15h20c8.284 0 15-6.716 15-15zm0-60c0-8.284-6.716-15-15-15h-20c-8.284 0-15 6.716-15 15s6.716 15 15 15h20c8.284 0 15-6.716 15-15zm80 60c0-8.284-6.716-15-15-15h-20c-8.284 0-15 6.716-15 15s6.716 15 15 15h20c8.284 0 15-6.716 15-15zm80 0c0-8.284-6.716-15-15-15h-20c-8.284 0-15 6.716-15 15s6.716 15 15 15h20c8.284 0 15-6.716 15-15zm80 0c0-8.284-6.716-15-15-15h-20c-8.284 0-15 6.716-15 15s6.716 15 15 15h20c8.284 0 15-6.716 15-15zm-160-60c0-8.284-6.716-15-15-15h-20c-8.284 0-15 6.716-15 15s6.716 15 15 15h20c8.284 0 15-6.716 15-15zm80 0c0-8.284-6.716-15-15-15h-20c-8.284 0-15 6.716-15 15s6.716 15 15 15h20c8.284 0 15-6.716 15-15zm80 0c0-8.284-6.716-15-15-15h-20c-8.284 0-15 6.716-15 15s6.716 15 15 15h20c8.284 0 15-6.716 15-15zm16-165h-26v45c0 8.284-6.716 15-15 15s-15-6.716-15-15v-45h-130v45c0 8.284-6.716 15-15 15s-15-6.716-15-15v-45h-130v45c0 8.284-6.716 15-15 15s-15-6.716-15-15v-45h-26c-30.327 0-55 24.673-55 55v50h512v-50c0-30.327-24.673-55-55-55z" fill="url(#SVGID_2_)"/></g></svg>