<svg id="Layer_1" enable-background="new 0 0 512 512" height="512" viewBox="0 0 512 512" width="512" xmlns="http://www.w3.org/2000/svg" xmlns:xlink="http://www.w3.org/1999/xlink"><linearGradient id="SVGID_1_" gradientUnits="userSpaceOnUse" x1="256" x2="256" y1="452" y2="102"><stop offset="0" stop-color="#00b59c"/><stop offset="1" stop-color="#9cffac"/></linearGradient><linearGradient id="SVGID_2_" gradientUnits="userSpaceOnUse" x1="256" x2="256" y1="512" y2="0"><stop offset="0" stop-color="#c3ffe8"/><stop offset=".9973" stop-color="#f0fff4"/></linearGradient><g><path d="m512 157v160c0 30.327-24.673 55-55 55h-36l-21.232-30h-286.01l-22.758 30h-36c-30.327 0-55-24.673-55-55v-160c0-30.327 24.673-55 55-55h402c30.327 0 55 24.673 55 55zm-151 220c0-8.284-6.716-15-15-15h-180c-8.284 0-15 6.716-15 15s6.716 15 15 15h180c8.284 0 15-6.716 15-15zm0 60c0-8.284-6.716-15-15-15h-180c-8.284 0-15 6.716-15 15s6.716 15 15 15h180c8.284 0 15-6.716 15-15z" fill="url(#SVGID_1_)"/><path d="m406 242h-300c-8.284 0-15 6.716-15 15v240c0 8.284 6.716 15 15 15h300c8.284 0 15-6.716 15-15v-240c0-8.284-6.716-15-15-15zm-60 210h-180c-8.284 0-15-6.716-15-15s6.716-15 15-15h180c8.284 0 15 6.716 15 15s-6.716 15-15 15zm0-60h-180c-8.284 0-15-6.716-15-15s6.716-15 15-15h180c8.284 0 15 6.716 15 15s-6.716 15-15 15zm0-60h-180c-8.284 0-15-6.716-15-15s6.716-15 15-15h180c8.284 0 15 6.716 15 15s-6.716 15-15 15zm75-230h-330v-87c0-8.284 6.716-15 15-15h300c8.284 0 15 6.716 15 15z" fill="url(#SVGID_2_)"/></g></svg>