<svg id="Layer_1" enable-background="new 0 0 512 512" height="512" viewBox="0 0 512 512" width="512" xmlns="http://www.w3.org/2000/svg" xmlns:xlink="http://www.w3.org/1999/xlink"><linearGradient id="SVGID_1_" gradientUnits="userSpaceOnUse" x1="256" x2="256" y1="451" y2="61"><stop offset="0" stop-color="#a93aff"/><stop offset="1" stop-color="#ff81ff"/></linearGradient><linearGradient id="SVGID_2_" gradientUnits="userSpaceOnUse" x1="256" x2="256" y1="451" y2="121"><stop offset="0" stop-color="#ffbef9"/><stop offset="1" stop-color="#fff1ff"/></linearGradient><g><path d="m0 365.666v-249.666c0-30.327 24.673-55 55-55h402c30.327 0 55 24.673 55 55v254.927z" fill="url(#SVGID_1_)"/><path d="m216 221c-27.57 0-50-22.43-50-50s22.43-50 50-50 50 22.43 50 50-22.43 50-50 50zm-161 230h402c30.327 0 55-24.673 55-55v-25.073l-143.382-223.039c-5.905-9.185-19.331-9.185-25.235 0l-126.793 197.233-88.59-118.121c-6-8-18-8-24 0l-104 138.666v30.334c0 30.327 24.673 55 55 55z" fill="url(#SVGID_2_)"/></g></svg>