<svg id="Layer_1" enable-background="new 0 0 512 512" height="512" viewBox="0 0 512 512" width="512" xmlns="http://www.w3.org/2000/svg" xmlns:xlink="http://www.w3.org/1999/xlink"><linearGradient id="SVGID_1_" gradientUnits="userSpaceOnUse" x1="196" x2="196" y1="471" y2="201"><stop offset="0" stop-color="#fd5900"/><stop offset="1" stop-color="#ffde00"/></linearGradient><linearGradient id="SVGID_2_" gradientUnits="userSpaceOnUse" x1="266.5" x2="266.5" y1="451.019" y2="41"><stop offset="0" stop-color="#ffedad"/><stop offset="1" stop-color="#ffffe5"/></linearGradient><g><path d="m337 471h-282c-30.327 0-55-24.673-55-55v-160c0-30.327 24.673-55 55-55h282c30.327 0 55 24.673 55 55v160c0 30.327-24.673 55-55 55z" fill="url(#SVGID_1_)"/><path d="m371 161c0 38.599-31.401 70-70 70s-70-31.401-70-70c0-21.603 9.841-40.947 25.27-53.797l-56.246-15.49c7.002 13.232 10.976 28.303 10.976 44.287 0 52.383-42.617 95-95 95s-95-42.617-95-95 42.617-95 95-95c8.543 0 16.823 1.14 24.704 3.265.002 0 174.808 48.136 177.583 48.9 30.265 7.716 52.713 35.201 52.713 67.835zm119.292 61.583-98.292 49.146v128.541l98.292 49.146c9.973 4.987 21.708-2.265 21.708-13.416v-200c0-11.151-11.735-18.403-21.708-13.417z" fill="url(#SVGID_2_)"/></g></svg>