<svg id="Layer_1" enable-background="new 0 0 512 512" height="512" viewBox="0 0 512 512" width="512" xmlns="http://www.w3.org/2000/svg" xmlns:xlink="http://www.w3.org/1999/xlink"><linearGradient id="SVGID_1_" gradientUnits="userSpaceOnUse" x1="256" x2="256" y1="512" y2="32"><stop offset="0" stop-color="#fd3a84"/><stop offset="1" stop-color="#ffa68d"/></linearGradient><linearGradient id="SVGID_2_" gradientUnits="userSpaceOnUse" x1="256" x2="256" y1="442" y2="0"><stop offset="0" stop-color="#ffc8d1"/><stop offset="1" stop-color="#fff6f7"/></linearGradient><g><path d="m396 512h-280c-30.327 0-55-24.673-55-55v-370c0-30.327 24.673-55 55-55h280c30.327 0 55 24.673 55 55v370c0 30.327-24.673 55-55 55z" fill="url(#SVGID_1_)"/><path d="m316 92h-120c-24.813 0-45-20.187-45-45v-32c0-8.284 6.716-15 15-15h180c8.284 0 15 6.716 15 15v32c0 24.813-20.187 45-45 45zm-145 55c0-8.284-6.716-15-15-15h-20c-8.284 0-15 6.716-15 15s6.716 15 15 15h20c8.284 0 15-6.716 15-15zm220 0c0-8.284-6.716-15-15-15h-160c-8.284 0-15 6.716-15 15s6.716 15 15 15h160c8.284 0 15-6.716 15-15zm-220 70c0-8.284-6.716-15-15-15h-20c-8.284 0-15 6.716-15 15s6.716 15 15 15h20c8.284 0 15-6.716 15-15zm220 0c0-8.284-6.716-15-15-15h-160c-8.284 0-15 6.716-15 15s6.716 15 15 15h160c8.284 0 15-6.716 15-15zm-220 70c0-8.284-6.716-15-15-15h-20c-8.284 0-15 6.716-15 15s6.716 15 15 15h20c8.284 0 15-6.716 15-15zm220 0c0-8.284-6.716-15-15-15h-160c-8.284 0-15 6.716-15 15s6.716 15 15 15h160c8.284 0 15-6.716 15-15zm-220 70c0-8.284-6.716-15-15-15h-20c-8.284 0-15 6.716-15 15s6.716 15 15 15h20c8.284 0 15-6.716 15-15zm220 0c0-8.284-6.716-15-15-15h-160c-8.284 0-15 6.716-15 15s6.716 15 15 15h160c8.284 0 15-6.716 15-15zm-220 70c0-8.284-6.716-15-15-15h-20c-8.284 0-15 6.716-15 15s6.716 15 15 15h20c8.284 0 15-6.716 15-15zm220 0c0-8.284-6.716-15-15-15h-160c-8.284 0-15 6.716-15 15s6.716 15 15 15h160c8.284 0 15-6.716 15-15z" fill="url(#SVGID_2_)"/></g></svg>