<svg id="Layer_1" enable-background="new 0 0 512 512" height="512" viewBox="0 0 512 512" width="512" xmlns="http://www.w3.org/2000/svg" xmlns:xlink="http://www.w3.org/1999/xlink"><linearGradient id="SVGID_1_" gradientUnits="userSpaceOnUse" x1="256" x2="256" y1="497" y2="0"><stop offset="0" stop-color="#5558ff"/><stop offset="1" stop-color="#00c0ff"/></linearGradient><linearGradient id="SVGID_2_" gradientUnits="userSpaceOnUse" x1="256" x2="256" y1="512" y2="335"><stop offset="0" stop-color="#addcff"/><stop offset=".5028" stop-color="#eaf6ff"/><stop offset="1" stop-color="#eaf6ff"/></linearGradient><g><path d="m512 335-170.667 20h-170.666l-170.667-20v-280c0-30.327 24.673-55 55-55h402c30.327 0 55 24.673 55 55zm-226 45h-60c-8.284 0-15 6.716-15 15v102h90v-102c0-8.284-6.716-15-15-15z" fill="url(#SVGID_1_)"/><path d="m346 512h-180c-8.284 0-15-6.716-15-15s6.716-15 15-15h180c8.284 0 15 6.716 15 15s-6.716 15-15 15zm-346-177v20c0 30.327 24.673 55 55 55h402c30.327 0 55-24.673 55-55v-20z" fill="url(#SVGID_2_)"/></g></svg>