<svg id="Layer_1" enable-background="new 0 0 512 512" height="512" viewBox="0 0 512 512" width="512" xmlns="http://www.w3.org/2000/svg" xmlns:xlink="http://www.w3.org/1999/xlink"><linearGradient id="SVGID_1_" gradientUnits="userSpaceOnUse" x1="256" x2="256" y1="482" y2="0"><stop offset="0" stop-color="#00b59c"/><stop offset="1" stop-color="#9cffac"/></linearGradient><linearGradient id="SVGID_2_" gradientUnits="userSpaceOnUse" x1="311" x2="311" y1="512" y2="79.975"><stop offset="0" stop-color="#c3ffe8"/><stop offset=".9973" stop-color="#f0fff4"/></linearGradient><g><path d="m497 482h-482c-8.284 0-15-6.716-15-15s6.716-15 15-15h482c8.284 0 15 6.716 15 15s-6.716 15-15 15zm15-187v-240c0-30.327-24.673-55-55-55h-402c-30.327 0-55 24.673-55 55v240c0 30.327 24.673 55 55 55h402c30.327 0 55-24.673 55-55z" fill="url(#SVGID_1_)"/><path d="m386 512c-24.813 0-45-20.187-45-45s20.187-45 45-45 45 20.187 45 45-20.187 45-45 45zm-195-257v-160c0-11.98 13.352-19.126 23.32-12.481l120 80c8.906 5.937 8.906 19.024 0 24.962l-120 80c-9.968 6.645-23.32-.501-23.32-12.481z" fill="url(#SVGID_2_)"/></g></svg>