<svg id="Layer_1" enable-background="new 0 0 512 512" height="512" viewBox="0 0 512 512" width="512" xmlns="http://www.w3.org/2000/svg" xmlns:xlink="http://www.w3.org/1999/xlink"><linearGradient id="SVGID_1_" gradientUnits="userSpaceOnUse" x1="216" x2="216" y1="486" y2="26"><stop offset="0" stop-color="#a93aff"/><stop offset="1" stop-color="#ff81ff"/></linearGradient><linearGradient id="SVGID_2_" gradientUnits="userSpaceOnUse" x1="278.5" x2="278.5" y1="486" y2="186"><stop offset="0" stop-color="#ffbef9"/><stop offset="1" stop-color="#fff1ff"/></linearGradient><g><path d="m432 121v320l-387 45c-24.853 0-45-20.147-45-45v-400c0-8.284 6.716-15 15-15h120c5.682 0 10.876 3.21 13.416 8.292l35.855 71.708h232.729c8.284 0 15 6.716 15 15z" fill="url(#SVGID_1_)"/><path d="m512 201v230c0 30.376-24.624 55-55 55h-412c24.853 0 45-20.147 45-45v-240c0-8.284 6.716-15 15-15h392c8.284 0 15 6.716 15 15z" fill="url(#SVGID_2_)"/></g></svg>