<svg id="Layer_1" enable-background="new 0 0 512 512" height="512" viewBox="0 0 512 512" width="512" xmlns="http://www.w3.org/2000/svg" xmlns:xlink="http://www.w3.org/1999/xlink"><linearGradient id="SVGID_1_" gradientUnits="userSpaceOnUse" x1="256" x2="256" y1="482" y2="60"><stop offset="0" stop-color="#ffedad"/><stop offset="1" stop-color="#ffffe5"/></linearGradient><linearGradient id="SVGID_2_" gradientUnits="userSpaceOnUse" x1="256" x2="256" y1="512" y2="0"><stop offset="0" stop-color="#fd5900"/><stop offset="1" stop-color="#ffde00"/></linearGradient><g><path d="m421 467c0 8.284-6.716 15-15 15h-300c-8.284 0-15-6.716-15-15s6.716-15 15-15h135v-117c0-8.284 6.716-15 15-15s15 6.716 15 15v117h135c8.284 0 15 6.716 15 15zm20-252v-80c0-8.284-6.716-15-15-15h-340c-8.284 0-15 6.716-15 15v80c0 8.284 6.716 15 15 15h340c8.284 0 15-6.716 15-15zm-100-140c0-8.284-6.716-15-15-15h-20c-8.284 0-15 6.716-15 15 0 8.284 6.716 15 15 15h20c8.284 0 15-6.716 15-15zm80 0c0-8.284-6.716-15-15-15h-20c-8.284 0-15 6.716-15 15 0 8.284 6.716 15 15 15h20c8.284 0 15-6.716 15-15zm-200 0c0-8.284-6.716-15-15-15h-100c-8.284 0-15 6.716-15 15 0 8.284 6.716 15 15 15h100c8.284 0 15-6.716 15-15zm120 200c0-8.284-6.716-15-15-15h-20c-8.284 0-15 6.716-15 15 0 8.284 6.716 15 15 15h20c8.284 0 15-6.716 15-15zm80 0c0-8.284-6.716-15-15-15h-20c-8.284 0-15 6.716-15 15 0 8.284 6.716 15 15 15h20c8.284 0 15-6.716 15-15zm-200 0c0-8.284-6.716-15-15-15h-100c-8.284 0-15 6.716-15 15 0 8.284 6.716 15 15 15h100c8.284 0 15-6.716 15-15z" fill="url(#SVGID_1_)"/><path d="m256 512c-24.813 0-45-20.187-45-45s20.187-45 45-45 45 20.187 45 45-20.187 45-45 45zm190-512h-380c-19.299 0-35 15.701-35 35v80c0 19.299 15.701 35 35 35h380c19.299 0 35-15.701 35-35v-80c0-19.299-15.701-35-35-35zm-240 90h-100c-8.284 0-15-6.716-15-15s6.716-15 15-15h100c8.284 0 15 6.716 15 15s-6.716 15-15 15zm120 0h-20c-8.284 0-15-6.716-15-15s6.716-15 15-15h20c8.284 0 15 6.716 15 15s-6.716 15-15 15zm80 0h-20c-8.284 0-15-6.716-15-15s6.716-15 15-15h20c8.284 0 15 6.716 15 15s-6.716 15-15 15zm40 110h-380c-19.299 0-35 15.701-35 35v80c0 19.299 15.701 35 35 35h380c19.299 0 35-15.701 35-35v-80c0-19.299-15.701-35-35-35zm-240 90h-100c-8.284 0-15-6.716-15-15s6.716-15 15-15h100c8.284 0 15 6.716 15 15s-6.716 15-15 15zm120 0h-20c-8.284 0-15-6.716-15-15s6.716-15 15-15h20c8.284 0 15 6.716 15 15s-6.716 15-15 15zm80 0h-20c-8.284 0-15-6.716-15-15s6.716-15 15-15h20c8.284 0 15 6.716 15 15s-6.716 15-15 15z" fill="url(#SVGID_2_)"/></g></svg>