<svg id="Layer_1" enable-background="new 0 0 512 512" height="512" viewBox="0 0 512 512" width="512" xmlns="http://www.w3.org/2000/svg" xmlns:xlink="http://www.w3.org/1999/xlink"><linearGradient id="SVGID_1_" gradientUnits="userSpaceOnUse" x1="347" x2="347" y1="512" y2="162"><stop offset="0" stop-color="#fd3a84"/><stop offset="1" stop-color="#ffa68d"/></linearGradient><linearGradient id="SVGID_2_" gradientUnits="userSpaceOnUse" x1="226" x2="226" y1="350" y2="0"><stop offset="0" stop-color="#ffc8d1"/><stop offset="1" stop-color="#fff6f7"/></linearGradient><g><path d="m512 197v200c0 19.299-15.701 35-35 35h-15v64.979c0 13.842-17.168 20.288-26.289 9.871l-65.536-74.85h-153.175c-19.299 0-35-15.701-35-35v-200c0-19.299 15.701-35 35-35h260c19.299 0 35 15.701 35 35z" fill="url(#SVGID_1_)"/><path d="m277 312h-20c-8.284 0-15-6.716-15-15 0-8.284 6.716-15 15-15h20c8.284 0 15 6.716 15 15 0 8.284-6.716 15-15 15zm95-15c0-8.284-6.716-15-15-15h-20c-8.284 0-15 6.716-15 15 0 8.284 6.716 15 15 15h20c8.284 0 15-6.716 15-15zm80 0c0-8.284-6.716-15-15-15h-20c-8.284 0-15 6.716-15 15 0 8.284 6.716 15 15 15h20c8.284 0 15-6.716 15-15zm-235-135h113v-127c0-19.299-15.701-35-35-35h-260c-19.299 0-35 15.701-35 35v200c0 19.299 15.701 35 35 35h15v64.976c0 13.845 17.168 20.293 26.289 9.874l65.517-74.85h40.194v-73c0-19.299 15.701-35 35-35z" fill="url(#SVGID_2_)"/></g></svg>