<svg id="Layer_1" enable-background="new 0 0 512 512" height="512" viewBox="0 0 512 512" width="512" xmlns="http://www.w3.org/2000/svg" xmlns:xlink="http://www.w3.org/1999/xlink"><linearGradient id="SVGID_1_" gradientUnits="userSpaceOnUse" x1="17.574" x2="446.845" y1="494.427" y2="65.155"><stop offset="0" stop-color="#5558ff"/><stop offset="1" stop-color="#00c0ff"/></linearGradient><path d="m508.059 129.061c-2.056-9.257-13.508-12.615-20.213-5.91l-77.196 77.196-77.782-21.213-21.213-77.782 77.196-77.196c6.705-6.705 3.347-18.157-5.91-20.214-53.234-11.827-111.188 2.96-152.605 44.377-49.468 49.468-60.954 122.53-34.468 182.961l-178.294 178.294c-23.431 23.431-23.431 61.421 0 84.853 23.431 23.432 61.421 23.432 84.853 0l178.294-178.294c60.43 26.486 133.493 15 182.961-34.468 41.416-41.417 56.203-99.371 44.377-152.604zm-423.31 319.403-14.142 14.142c-5.858 5.858-15.355 5.858-21.213 0s-5.858-15.355 0-21.213l14.142-14.142c5.858-5.858 15.355-5.858 21.213 0s5.858 15.355 0 21.213z" fill="url(#SVGID_1_)"/></svg>