<svg id="Layer_1" enable-background="new 0 0 512 512" height="512" viewBox="0 0 512 512" width="512" xmlns="http://www.w3.org/2000/svg" xmlns:xlink="http://www.w3.org/1999/xlink"><linearGradient id="SVGID_1_" gradientUnits="userSpaceOnUse" x1="179.179" x2="454.821" y1="332.821" y2="57.179"><stop offset="0" stop-color="#c3ffe8"/><stop offset=".9973" stop-color="#f0fff4"/></linearGradient><linearGradient id="SVGID_2_" gradientUnits="userSpaceOnUse" x1="13.912" x2="398.279" y1="498.088" y2="113.721"><stop offset="0" stop-color="#00b59c"/><stop offset="1" stop-color="#9cffac"/></linearGradient><g><path d="m317 390c-107.523 0-195-87.477-195-195s87.477-195 195-195 195 87.477 195 195-87.477 195-195 195z" fill="url(#SVGID_1_)"/><path d="m317 310c-63.411 0-115-51.589-115-115s51.589-115 115-115 115 51.589 115 115-51.589 115-115 115zm-167.281-14.894-135.807 135.807c-18.55 18.55-18.55 48.625 0 67.175 18.55 18.55 48.625 18.55 67.175 0l135.807-135.807c-27.52-16.531-50.644-39.655-67.175-67.175z" fill="url(#SVGID_2_)"/></g></svg>