<svg width="512" height="512" viewBox="0 0 512 512" fill="none" xmlns="http://www.w3.org/2000/svg">
<path d="M512 256C512 397.385 397.385 512 256 512C114.615 512 0 397.385 0 256C0 114.615 114.615 0 256 0C397.385 0 512 114.615 512 256Z" fill="#BF616A"/>
<path d="M256 451C164.873 451 91 377.127 91 286C91 277.716 97.716 271 106 271H406C414.284 271 421 277.716 421 286C421 377.127 347.127 451 256 451ZM182.869 193.252C186.874 200.504 196 203.136 203.252 199.131C210.504 195.126 213.136 186 209.131 178.748C195.687 154.406 176.817 141 156 141C135.183 141 116.313 154.406 102.869 178.748C98.864 186 101.496 195.126 108.748 199.131C116 203.136 125.126 200.504 129.131 193.252C136.94 179.11 146.734 171 156 171C165.266 171 175.06 179.11 182.869 193.252ZM382.869 193.252C386.874 200.504 396 203.136 403.252 199.131C410.504 195.126 413.136 186 409.131 178.748C395.687 154.406 376.817 141 356 141C335.183 141 316.313 154.406 302.869 178.748C298.864 186 301.496 195.126 308.748 199.131C316 203.136 325.126 200.504 329.131 193.252C336.94 179.11 346.734 171 356 171C365.266 171 375.06 179.11 382.869 193.252Z" fill="#ECEFF4"/>
</svg>
