<svg id="Layer_1" enable-background="new 0 0 512 512" height="512" viewBox="0 0 512 512" width="512" xmlns="http://www.w3.org/2000/svg" xmlns:xlink="http://www.w3.org/1999/xlink"><linearGradient id="SVGID_1_" gradientUnits="userSpaceOnUse" x1="256" x2="256" y1="497" y2="15"><stop offset="0" stop-color="#5558ff"/><stop offset="1" stop-color="#00c0ff"/></linearGradient><linearGradient id="SVGID_2_" gradientUnits="userSpaceOnUse" x1="256" x2="256" y1="512" y2="0"><stop offset="0" stop-color="#addcff"/><stop offset=".5028" stop-color="#eaf6ff"/><stop offset="1" stop-color="#eaf6ff"/></linearGradient><g><path d="m121 497v-116.132c0-63.21 40.29-119.109 100.257-139.099 1.529-.51 3.131-.77 4.743-.77h60c1.612 0 3.214.26 4.743.77 59.967 19.99 100.257 75.889 100.257 139.099v116.132zm0-482v101l90 15h90l90-15v-101z" fill="url(#SVGID_1_)"/><path d="m121 116h270v15.132c0 51.762-27.021 98.616-69.737 124.868h-130.526c-42.716-26.252-69.737-73.106-69.737-124.868zm285 366h-24.166l-115.698-106.057c-5.735-5.257-14.537-5.257-20.272 0l-115.698 106.057h-24.166c-8.284 0-15 6.716-15 15s6.716 15 15 15h300c8.284 0 15-6.716 15-15s-6.716-15-15-15zm15-467c0-8.284-6.716-15-15-15h-300c-8.284 0-15 6.716-15 15s6.716 15 15 15h300c8.284 0 15-6.716 15-15z" fill="url(#SVGID_2_)"/></g></svg>