<svg id="Layer_1" enable-background="new 0 0 512 512" height="512" viewBox="0 0 512 512" width="512" xmlns="http://www.w3.org/2000/svg" xmlns:xlink="http://www.w3.org/1999/xlink"><linearGradient id="SVGID_1_" gradientUnits="userSpaceOnUse" x1="256" x2="256" y1="690.567" y2="0"><stop offset="0" stop-color="#00b59c"/><stop offset="1" stop-color="#9cffac"/></linearGradient><linearGradient id="SVGID_2_" gradientUnits="userSpaceOnUse" x1="256" x2="256" y1="311.224" y2="110"><stop offset="0" stop-color="#c3ffe8"/><stop offset=".9973" stop-color="#f0fff4"/></linearGradient><g><path d="m416 0h-320c-8.284 0-15 6.716-15 15v481.976c0 11.781 12.959 18.964 22.95 12.72l152.05-95.031 152.05 95.031c9.991 6.244 22.95-.938 22.95-12.72v-481.976c0-8.284-6.716-15-15-15z" fill="url(#SVGID_1_)"/><path d="m304.643 309.467-48.643-25.573-48.643 25.574c-11.004 5.786-23.866-3.559-21.764-15.812l9.29-54.166-39.353-38.36c-8.903-8.678-3.99-23.798 8.313-25.585l54.384-7.902 24.321-49.281c5.502-11.149 21.4-11.149 26.902 0l24.321 49.281 54.384 7.902c12.303 1.788 17.216 16.907 8.313 25.585l-39.353 38.359 9.29 54.166c2.104 12.254-10.758 21.598-21.762 15.812z" fill="url(#SVGID_2_)"/></g></svg>