<svg id="Layer_1" enable-background="new 0 0 512 512" height="512" viewBox="0 0 512 512" width="512" xmlns="http://www.w3.org/2000/svg" xmlns:xlink="http://www.w3.org/1999/xlink"><linearGradient id="SVGID_1_" gradientUnits="userSpaceOnUse" x1="256" x2="256" y1="512" y2="0"><stop offset="0" stop-color="#ffbef9"/><stop offset="1" stop-color="#fff1ff"/></linearGradient><linearGradient id="SVGID_2_" gradientUnits="userSpaceOnUse" x1="191" x2="191" y1="250" y2="20"><stop offset="0" stop-color="#a93aff"/><stop offset="1" stop-color="#ff81ff"/></linearGradient><g><path d="m455.985 320h-240c-8.284 0-15-6.716-15-15v-215h255c10.612 0 17.868 10.718 13.927 20.571l-37.771 94.429 37.772 94.429c3.941 9.853-3.316 20.571-13.928 20.571zm-384.985 177v-482c0-8.284-6.716-15-15-15s-15 6.716-15 15v482c0 8.284 6.716 15 15 15s15-6.716 15-15z" fill="url(#SVGID_1_)"/><path d="m311 35v200c0 8.284-6.716 15-15 15h-225v-230h225c8.284 0 15 6.716 15 15z" fill="url(#SVGID_2_)"/></g></svg>