<svg id="Layer_1" enable-background="new 0 0 512 512" height="512" viewBox="0 0 512 512" width="512" xmlns="http://www.w3.org/2000/svg" xmlns:xlink="http://www.w3.org/1999/xlink"><linearGradient id="SVGID_1_" gradientUnits="userSpaceOnUse" x1="256" x2="256" y1="512" y2="140"><stop offset="0" stop-color="#fd5900"/><stop offset="1" stop-color="#ffde00"/></linearGradient><linearGradient id="SVGID_2_" gradientUnits="userSpaceOnUse" x1="256" x2="256" y1="452" y2="0"><stop offset="0" stop-color="#ffedad"/><stop offset="1" stop-color="#ffffe5"/></linearGradient><g><path d="m497 512h-482c-8.284 0-15-6.716-15-15v-120c0-8.284 6.716-15 15-15h482c8.284 0 15 6.716 15 15v120c0 8.284-6.716 15-15 15zm-161-182h-160c-19.299 0-35-15.701-35-35v-120c0-19.299 15.701-35 35-35h160c19.299 0 35 15.701 35 35v120c0 19.299-15.701 35-35 35z" fill="url(#SVGID_1_)"/><path d="m256 270c-8.284 0-15-6.716-15-15v-40c0-8.284 6.716-15 15-15s15 6.716 15 15v40c0 8.284-6.716 15-15 15zm-135 167c0-8.284-6.716-15-15-15h-20c-8.284 0-15 6.716-15 15s6.716 15 15 15h20c8.284 0 15-6.716 15-15zm80 0c0-8.284-6.716-15-15-15h-20c-8.284 0-15 6.716-15 15s6.716 15 15 15h20c8.284 0 15-6.716 15-15zm80 0c0-8.284-6.716-15-15-15h-20c-8.284 0-15 6.716-15 15s6.716 15 15 15h20c8.284 0 15-6.716 15-15zm80 0c0-8.284-6.716-15-15-15h-20c-8.284 0-15 6.716-15 15s6.716 15 15 15h20c8.284 0 15-6.716 15-15zm80 0c0-8.284-6.716-15-15-15h-20c-8.284 0-15 6.716-15 15s6.716 15 15 15h20c8.284 0 15-6.716 15-15zm-265-297h25v-55c0-30.327 24.673-55 55-55s55 24.673 55 55v55h25c1.698 0 3.366.128 5 .363v-55.363c0-46.869-38.131-85-85-85s-85 38.131-85 85v55.363c1.634-.235 3.302-.363 5-.363z" fill="url(#SVGID_2_)"/></g></svg>