<svg id="Layer_1" enable-background="new 0 0 512 512" height="512" viewBox="0 0 512 512" width="512" xmlns="http://www.w3.org/2000/svg" xmlns:xlink="http://www.w3.org/1999/xlink"><linearGradient id="SVGID_1_" gradientUnits="userSpaceOnUse" x1="256" x2="256" y1="512" y2="10.475"><stop offset="0" stop-color="#fd3a84"/><stop offset="1" stop-color="#ffa68d"/></linearGradient><linearGradient id="SVGID_2_" gradientUnits="userSpaceOnUse" x1="256" x2="256" y1="512" y2="0"><stop offset="0" stop-color="#ffc8d1"/><stop offset="1" stop-color="#fff6f7"/></linearGradient><g><path d="m436 512h-115l-65-40-65 40h-115c-8.284 0-15-6.716-15-15v-324.025l195-162.5 195 162.5v324.025c0 8.284-6.716 15-15 15z" fill="url(#SVGID_1_)"/><path d="m321 512h-130v-195c0-8.284 6.716-15 15-15h100c8.284 0 15 6.716 15 15zm187.523-286.565c5.303-6.364 4.443-15.822-1.921-21.126l-241-200.832c-5.563-4.636-13.643-4.636-19.205 0l-241 200.832c-6.364 5.303-7.224 14.762-1.921 21.126 5.303 6.364 14.762 7.224 21.126 1.921l231.398-192.831 231.397 192.83c6.364 5.304 15.823 4.444 21.126-1.92z" fill="url(#SVGID_2_)"/></g></svg>